<svg xmlns="http://www.w3.org/2000/svg" style="display: none;"><symbol id="magnifying-glass" viewBox="0 0 451 451"><title>magnifying-glass</title><path d="M447.05,428l-109.6-109.6c29.4-33.8,47.2-77.9,47.2-126.1C384.65,86.2,298.35,0,192.35,0C86.25,0,0.05,86.3,0.05,192.3 s86.3,192.3,192.3,192.3c48.2,0,92.3-17.8,126.1-47.2L428.05,447c2.6,2.6,6.1,4,9.5,4s6.9-1.3,9.5-4 C452.25,441.8,452.25,433.2,447.05,428z M26.95,192.3c0-91.2,74.2-165.3,165.3-165.3c91.2,0,165.3,74.2,165.3,165.3 s-74.1,165.4-165.3,165.4C101.15,357.7,26.95,283.5,26.95,192.3z"/></symbol><symbol id="close" viewBox="0 0 512 512"><title>close</title><g> <g> <path d="M505.943,6.058c-8.077-8.077-21.172-8.077-29.249,0L6.058,476.693c-8.077,8.077-8.077,21.172,0,29.249 C10.096,509.982,15.39,512,20.683,512c5.293,0,10.586-2.019,14.625-6.059L505.943,35.306 C514.019,27.23,514.019,14.135,505.943,6.058z"/> </g> </g><g> <g> <path d="M505.942,476.694L35.306,6.059c-8.076-8.077-21.172-8.077-29.248,0c-8.077,8.076-8.077,21.171,0,29.248l470.636,470.636 c4.038,4.039,9.332,6.058,14.625,6.058c5.293,0,10.587-2.019,14.624-6.057C514.018,497.866,514.018,484.771,505.942,476.694z"/> </g> </g></symbol><symbol id="alcohol" viewBox="0 0 512 512"><title>wine</title><g> <g> <path d="M188.275,157.013V8.533c0-4.71-3.823-8.533-8.533-8.533h-51.2c-4.71,0-8.533,3.823-8.533,8.533v148.48 c-31.727,17.954-51.209,51.2-51.2,87.979v258.475c0,4.719,3.823,8.533,8.533,8.533h153.6c4.71,0,8.533-3.814,8.533-8.533V245.001 C239.483,208.213,220.002,174.967,188.275,157.013z M222.408,494.933H85.875V244.992c-0.017-32.06,17.801-60.885,46.481-75.221 c2.893-1.451,4.719-4.403,4.719-7.637V17.067h34.133v145.067c0,3.234,1.826,6.195,4.719,7.637 c28.681,14.327,46.49,43.153,46.481,75.221V494.933z"/> </g> </g><g> <g> <rect x="128.516" y="42.667" width="51.2" height="17.067"/> </g> </g><g> <g> <path d="M442.397,276.207l-15.275-106.752c-0.597-4.198-4.198-7.322-8.448-7.322h-102.4c-4.241,0-7.842,3.123-8.456,7.322 l-15.266,106.283c-1.451,9.728-0.922,19.482,1.502,28.817l1.485,6.255c8.277,33.041,37.854,56.115,71.919,56.124 c0.051,0,0.085,0,0.128,0c33.843,0,63.369-22.869,71.851-55.808l1.399-5.956C443.319,295.646,443.839,285.884,442.397,276.207z M424.281,301.056l-1.408,5.973c-6.502,25.233-29.227,42.837-55.287,42.837c-0.043,0-0.077,0-0.111,0 c-26.232,0-49.007-17.766-55.347-43.093l-1.502-6.332c-1.903-7.279-2.295-14.746-1.178-22.229l14.217-99.012h87.612l14.242,99.473 C426.628,286.114,426.235,293.581,424.281,301.056z"/> </g> </g><g> <g> <rect x="358.916" y="358.4" width="17.067" height="110.933"/> </g> </g><g> <g> <path d="M384.541,460.8h-34.133c-23.526,0-42.667,19.14-42.667,42.667c0,4.719,3.814,8.533,8.533,8.533h102.4 c4.719,0,8.533-3.814,8.533-8.533C427.208,479.94,408.068,460.8,384.541,460.8z M326.267,494.933 c3.524-9.933,13.022-17.067,24.141-17.067h34.133c11.127,0,20.617,7.134,24.141,17.067H326.267z"/> </g> </g><g> <g> <rect x="299.182" y="281.6" width="136.533" height="17.067"/> </g> </g><g> <g> <rect x="128.516" y="119.467" width="51.2" height="17.067"/> </g> </g><g> <g> <path d="M196.808,264.533h-85.333c-4.71,0-8.533,3.814-8.533,8.533v153.6c0,4.719,3.823,8.533,8.533,8.533h85.333 c4.71,0,8.533-3.814,8.533-8.533v-153.6C205.341,268.348,201.518,264.533,196.808,264.533z M188.275,418.133h-68.267V281.6h68.267 V418.133z"/> </g> </g></symbol><symbol id="drugs" viewBox="0 0 463 463"><title>syringe</title><path d="M287.5,104h-24H255V15h16.5c4.143,0,7.5-3.358,7.5-7.5S275.643,0,271.5,0h-80c-4.143,0-7.5,3.358-7.5,7.5 s3.357,7.5,7.5,7.5h16.348l0.304,89H199.5h-24c-4.143,0-7.5,3.358-7.5,7.5s3.357,7.5,7.5,7.5H192v225.233 c0,6.24,1.83,12.283,5.291,17.473L224,401.771V455.5c0,4.142,3.357,7.5,7.5,7.5s7.5-3.358,7.5-7.5v-53.729l26.709-40.064 c3.461-5.191,5.291-11.233,5.291-17.473V119h16.5c4.143,0,7.5-3.358,7.5-7.5S291.643,104,287.5,104z M222.848,15H240v89h-16.848 L222.848,15z M253.229,353.385C253.229,353.386,253.229,353.386,253.229,353.385L231.5,385.979l-21.729-32.594 c-1.813-2.719-2.771-5.883-2.771-9.152V287h49v57.233C256,347.502,255.042,350.667,253.229,353.385z M256,272h-49V119h49V272z"/><path d="M223.5,304c-1.97,0-3.91,0.8-5.3,2.2c-1.4,1.39-2.2,3.33-2.2,5.3c0,1.97,0.8,3.91,2.2,5.3c1.39,1.4,3.33,2.2,5.3,2.2 s3.91-0.8,5.3-2.2c1.4-1.39,2.2-3.33,2.2-5.3c0-1.97-0.8-3.91-2.2-5.3C227.41,304.8,225.47,304,223.5,304z"/><path d="M239.5,328c-1.98,0-3.91,0.8-5.3,2.2c-1.4,1.39-2.2,3.32-2.2,5.3s0.8,3.91,2.2,5.3c1.39,1.4,3.319,2.2,5.3,2.2 c1.979,0,3.91-0.8,5.3-2.2c1.4-1.39,2.2-3.32,2.2-5.3s-0.8-3.91-2.2-5.3C243.41,328.8,241.479,328,239.5,328z"/></symbol><symbol id="homeless" viewBox="0 0 380.076 380.076"><title>broken-house</title><path d="M376.104,162.526c0,0-33.497-25.689-33.497-25.798c0,0-2.796-2.722-2.796-8.222c0-14.081,0-56.324,0-56.324 c0-6.341-5.159-11.5-11.5-11.5h-41.349c-6.341,0-11.5,5.159-11.5,11.5c0,0,0,7.087,0,9.449c0,2.625-1.431,1.419-1.431,1.419 L197.8,23.694c-1.972-1.535-4.299-2.347-6.729-2.347c-3.981,0-7.634,2.245-9.533,5.858l-17.847,33.946 c-2.173,4.133-2.181,9.91-0.02,14.047l23.054,44.152c0,0,1.688,2.279-0.606,6.314c-6.043,10.626-28.859,39.472-28.859,39.472 c-2.781,3.803-3.599,9.551-1.989,13.979l6.123,16.839c0,0,1.977,5.384-1.841,2.244c-7.433-6.112-20.385-15.901-27.043-21.371 c-3.639-2.989-0.818-6.591-0.818-6.591l22.764-39.832c2.665-4.667,2.066-11.019-1.423-15.105l-28.057-32.851 c-2.213-2.591-5.458-4.078-8.902-4.078c-2.592,0-5.135,0.869-7.162,2.447L3.972,162.525c-4.076,3.172-4.502,7.292-3.541,10.089 c0.96,2.797,3.826,5.787,8.991,5.787h23.115c0,0,2.366-0.229,2.366,2.188c0,41.66,0,166.641,0,166.641c0,6.341,5.159,11.5,11.5,11.5 h102.623c6.341,0,11.5-5.159,11.5-11.5v-49.117c0-2.291-0.063-5.995-0.142-8.228c-0.004-0.151-0.305-15.278,8.602-24.426 c4.747-4.877,11.257-7.247,19.901-7.247c9.171,0,16.402,2.592,21.493,7.704c9.173,9.212,9.218,23.985,9.218,24.102 c-0.028,2.227-0.051,5.868-0.051,8.094v49.117c0,6.341,5.159,11.5,11.5,11.5h102.623c6.341,0,11.5-5.159,11.5-11.5 c0,0,0-124.105,0-165.474c0-3.625,3.112-3.354,3.112-3.354h22.369c5.165,0,8.031-2.989,8.991-5.787 C380.605,169.817,380.179,165.697,376.104,162.526z M290.463,77.755c0-2,1.998-2.074,1.998-2.074h29.748 c0,0,2.603-0.092,2.603,2.658c0,9.938,0,29.148,0,39.75c0,4.417-2.538,2.521-2.538,2.521l-31.417-24.461 c-0.148-0.193-0.394-0.581-0.394-1.956C290.463,94.193,290.463,82.152,290.463,77.755z M341.672,163.401 c-6.341,0-11.5,5.159-11.5,11.5v165.104c0,0,0.491,3.724-3.634,3.724c-21.906,0-64.81,0-87.625,0c-4.375,0-4.364-4.099-4.364-4.099 v-41.519c0-2.175,0.023-5.732,0.049-7.907c0.011-0.852,0.102-21.014-13.474-34.759c-8.018-8.118-18.864-12.234-32.235-12.234 c-12.783,0-23.129,3.999-30.749,11.886c-13.327,13.795-12.775,34.405-12.745,35.277c0.072,2.083,0.133,5.626,0.133,7.737v42.769 c0,0,0.261,2.849-4.364,2.849c-22.815,0-65.156,0-86.875,0c-5,0-4.384-4.099-4.384-4.099V174.901c0-6.341-5.159-11.5-11.5-11.5 c0,0-5.649,0-7.533,0c-3,0-0.471-2.442-0.471-2.442l83.322-64.876c0,0,1.815-1.514,3.045-0.146 c3.913,4.354,16.046,18.802,20.625,24.147c2.146,2.506-0.388,4.287-0.388,4.287l-64.308,41.233c-2.79,1.788-3.602,5.5-1.813,8.29 c1.146,1.787,3.08,2.762,5.057,2.762c1.108,0,2.23-0.308,3.232-0.95c0,0,35.04-22.105,46.496-29.813 c2.618-1.761,2.406,0.439,2.406,0.439l-12.983,22.718c-2.908,5.092-1.581,11.926,3.022,15.558l53.442,42.173 c1.977,1.558,4.042,2.349,6.139,2.349h0.001c2.624,0,5.081-1.271,6.573-3.4c1.174-1.677,2.259-4.544,0.754-8.683l-15.571-42.82 c0.003-0.131,0.028-0.31,0.063-0.436l31.383-42.923c2.962-4.053,3.425-10.223,1.102-14.672c0,0-8.027-15.621-10.838-20.755 c-2.791-5.1,1.676-2.164,1.676-2.164l110.107,82.188c1.077,0.804,2.336,1.192,3.584,1.192c1.829,0,3.635-0.833,4.814-2.411 c1.982-2.655,1.436-6.415-1.22-8.397L179.231,68.143c0,0-1.755-1.102-0.619-3.164c2.685-4.87,9.675-18.583,12.477-23.706 c1.24-2.268,3.546-1.034,3.546-1.034l153.871,119.808c0,0,3.032,3.354-1.301,3.354C345.821,163.401,341.672,163.401,341.672,163.401 z"/></symbol><symbol id="crisis_services" viewBox="0 0 502.09495 502.09495"><title>rubber</title><path d="m426.382812 75.710938c-62.265624-64.46875-154.472656-90.324219-241.179687-67.628907-86.710937 22.695313-154.425781 90.410157-177.121094 177.121094-22.695312 86.707031 3.160157 178.914063 67.628907 241.179687 62.265624 64.46875 154.472656 90.324219 241.183593 67.628907 86.707031-22.695313 154.421875-90.410157 177.117188-177.117188 22.695312-86.710937-3.160157-178.917969-67.628907-241.183593zm-5.792968 333.601562-73.695313-73.703125c42.871094-48.203125 42.871094-120.863281 0-169.066406l73.695313-73.695313c83.273437 89.054688 83.273437 227.410156 0 316.464844zm-248.695313-79.128906c-37.621093-37.75-43.351562-96.8125-13.6875-141.089844 29.667969-44.277344 86.472657-61.445312 135.695313-41.007812s77.160156 72.789062 66.742187 125.058593c-10.421875 52.265625-56.300781 89.902344-109.597656 89.902344-29.71875.085937-58.234375-11.75-79.152344-32.863281zm237.386719-248.679688-73.699219 73.695313c-48.203125-42.875-120.867187-42.875-169.070312 0l-73.695313-73.695313c89.054688-83.273437 227.410156-83.273437 316.464844 0zm-327.777344 11.3125 73.695313 73.703125c-42.867188 48.203125-42.867188 120.863281 0 169.0625l-73.695313 73.699219c-83.273437-89.054688-83.273437-227.410156 0-316.464844zm11.3125 327.773438 73.695313-73.695313c48.203125 42.875 120.867187 42.875 169.070312 0l73.699219 73.695313c-89.054688 83.273437-227.410156 83.273437-316.464844 0zm0 0"/></symbol><symbol id="free_time" viewBox="0 0 464 464"><title>puzzle</title><path d="m440 0h-416c-13.253906 0-24 10.746094-24 24v416c0 13.253906 10.746094 24 24 24h416c13.253906 0 24-10.746094 24-24v-416c0-13.253906-10.746094-24-24-24zm8 24v200h-74.238281c-3.03125 0-5.800781 1.710938-7.15625 4.421875s-1.0625 5.953125.753906 8.378906c5.742187 7.894531 8.773437 17.4375 8.640625 27.199219 0 22.054688-14.351562 40-32 40s-32-17.945312-32-40c-.136719-9.761719 2.886719-19.300781 8.625-27.199219 1.816406-2.425781 2.109375-5.667969.753906-8.378906-1.355468-2.710937-4.125-4.421875-7.15625-4.421875h-74.222656v-60.617188c7.628906 3.070313 15.777344 4.636719 24 4.617188 30.878906 0 56-21.527344 56-48s-25.121094-48-56-48c-8.222656-.019531-16.371094 1.546875-24 4.617188v-60.617188h200c4.417969 0 8 3.582031 8 8zm-432 0c0-4.417969 3.582031-8 8-8h200v74.238281c0 3.03125 1.710938 5.800781 4.421875 7.15625s5.953125 1.0625 8.378906-.753906c7.898438-5.738281 17.4375-8.765625 27.199219-8.640625 22.054688 0 40 14.351562 40 32s-17.945312 32-40 32c-9.757812.132812-19.300781-2.894531-27.199219-8.625-2.425781-1.816406-5.667969-2.109375-8.378906-.753906-2.710937 1.355468-4.421875 4.125-4.421875 7.15625v74.222656h-60.617188c3.070313-7.628906 4.636719-15.777344 4.617188-24 0-30.871094-21.527344-56-48-56s-48 25.128906-48 56c-.019531 8.222656 1.546875 16.371094 4.617188 24h-60.617188zm0 416v-200h74.238281c3.03125 0 5.800781-1.710938 7.15625-4.421875s1.0625-5.953125-.753906-8.378906c-5.742187-7.894531-8.773437-17.4375-8.640625-27.199219 0-22.054688 14.351562-40 32-40s32 17.945312 32 40c.136719 9.761719-2.886719 19.300781-8.625 27.199219-1.816406 2.425781-2.109375 5.667969-.753906 8.378906 1.355468 2.710937 4.125 4.421875 7.15625 4.421875h74.222656v60.617188c-7.628906-3.070313-15.777344-4.636719-24-4.617188-30.878906 0-56 21.527344-56 48s25.121094 48 56 48c8.222656.019531 16.371094-1.546875 24-4.617188v60.617188h-200c-4.417969 0-8-3.582031-8-8zm432 0c0 4.417969-3.582031 8-8 8h-200v-74.238281c0-3.03125-1.710938-5.800781-4.421875-7.15625s-5.953125-1.0625-8.378906.753906c-7.898438 5.738281-17.4375 8.765625-27.199219 8.640625-22.054688 0-40-14.351562-40-32s17.945312-32 40-32c9.757812-.132812 19.300781 2.894531 27.199219 8.625 2.425781 1.816406 5.667969 2.109375 8.378906.753906 2.710937-1.355468 4.421875-4.125 4.421875-7.15625v-74.222656h60.617188c-3.070313 7.628906-4.636719 15.777344-4.617188 24 0 30.871094 21.527344 56 48 56s48-25.128906 48-56c.019531-8.222656-1.546875-16.371094-4.617188-24h60.617188zm0 0"/></symbol>
    <symbol id="back" viewBox="0 0 477.175 477.175"><path d="M145.188,238.575l215.5-215.5c5.3-5.3,5.3-13.8,0-19.1s-13.8-5.3-19.1,0l-225.1,225.1c-5.3,5.3-5.3,13.8,0,19.1l225.1,225
		c2.6,2.6,6.1,4,9.5,4s6.9-1.3,9.5-4c5.3-5.3,5.3-13.8,0-19.1L145.188,238.575z"/>
    </symbol>
</svg>
